<?xml version="1.0" encoding="utf-8"?>
<!-- Generator: Adobe Illustrator 27.5.0, SVG Export Plug-In . SVG Version: 6.00 Build 0)  -->
<svg version="1.1" xmlns="http://www.w3.org/2000/svg" xmlns:xlink="http://www.w3.org/1999/xlink" x="0px" y="0px"
	 viewBox="0 0 500 500" style="enable-background:new 0 0 500 500;" xml:space="preserve">
<g id="BACKGROUND">
	<rect style="fill:#F9FBFC;" width="500" height="500"/>
	<path style="fill:#D1F5FF;" d="M251.151,59.496c1.568,40.524,18.448,79.397,42.353,112.157
		c15.474,21.206,34.124,40.374,56.369,54.314c48.13,30.16,112.455,35.987,148.945,79.515c0.399,0.476,0.79,0.96,1.182,1.444V0
		H261.113C253.727,18.78,250.371,39.328,251.151,59.496z"/>
	<path style="fill:#D1F5FF;" d="M303.202,497.38c-3.272-4.755-6.691-9.495-11.102-13.218c-11.767-9.932-28.356-11.066-42.854-16.253
		c-24.035-8.6-42.239-28.473-57.031-49.277c-14.792-20.804-27.373-43.427-45.279-61.621c-14.461-14.694-32.14-25.91-51.246-33.545
		C65.621,311.449,32.194,307.986,0,311.482V500h304.977C304.389,499.117,303.796,498.244,303.202,497.38z"/>
	<path style="fill:#D1F5FF;" d="M0,0v97.034C14.399,81.775,31.988,69.52,51.35,61.429c25.374-10.603,53.29-14.085,78.589-24.867
		C146.821,29.367,169.213,16.516,182.178,0H0z"/>
</g>
<g id="OBJECTS">
	<g>
		<g>
			<path style="fill:#F6B381;" d="M110.707,403.904l8.848-68.427c0.943-7.292,4.762-13.904,10.607-18.364l43.164-32.941
				l23.396,74.317l-53.673,59.866L110.707,403.904z"/>
			<path style="fill:#F6906B;" d="M172.294,307.175l-30.285,25.134c-1.045,0.858-1.498,2.244-1.162,3.554l10.769,41.941
				c0.717,2.794,4.327,3.552,6.108,1.282l21.609-27.551c0.931-1.188,0.991-2.84,0.147-4.092l-2.092-39.524
				C176.242,306.218,173.879,305.873,172.294,307.175z"/>
		</g>
		<g>
			<path style="fill:#F6B381;" d="M392.135,349.904l-8.848-68.427c-0.943-7.292-4.762-13.904-10.607-18.364l-43.164-32.941
				l-23.396,74.317l53.673,59.866L392.135,349.904z"/>
			<path style="fill:#F6906B;" d="M330.548,253.175l30.285,25.134c1.045,0.858,1.498,2.244,1.161,3.554l-10.769,41.941
				c-0.717,2.794-4.328,3.552-6.108,1.282l-21.609-27.551c-0.931-1.188-0.991-2.84-0.148-4.092l2.092-39.524
				C326.601,252.218,328.963,251.873,330.548,253.175z"/>
		</g>
		<linearGradient id="SVGID_1_" gradientUnits="userSpaceOnUse" x1="41.9491" y1="629.2261" x2="345.9389" y2="88.8008">
			<stop  offset="0" style="stop-color:#7F5EFF"/>
			<stop  offset="0.2423" style="stop-color:#8665FF"/>
			<stop  offset="0.5952" style="stop-color:#9978FF"/>
			<stop  offset="0.94" style="stop-color:#B391FF"/>
		</linearGradient>
		<path style="fill:url(#SVGID_1_);" d="M308.3,391.083H199.7c-14.051,0-25.441-11.391-25.441-25.442V138.853
			c0-14.051,11.39-25.442,25.441-25.442h108.6c14.051,0,25.442,11.391,25.442,25.442v226.788
			C333.742,379.693,322.351,391.083,308.3,391.083z"/>
		
			<linearGradient id="SVGID_00000141455831804587451420000016111257651305973635_" gradientUnits="userSpaceOnUse" x1="276.3983" y1="235.9224" x2="180.3979" y2="77.9221">
			<stop  offset="0" style="stop-color:#7F5EFF"/>
			<stop  offset="0.2423" style="stop-color:#8665FF"/>
			<stop  offset="0.5952" style="stop-color:#9978FF"/>
			<stop  offset="0.94" style="stop-color:#B391FF"/>
		</linearGradient>
		<path style="fill:url(#SVGID_00000141455831804587451420000016111257651305973635_);" d="M329.185,124.332
			c-4.596-6.599-12.234-10.92-20.886-10.92H199.7c-14.051,0-25.441,11.391-25.441,25.442v127.433
			C264.194,220.271,308.892,160.571,329.185,124.332z"/>
		<g>
			<path style="fill:#F9FBFC;" d="M322.327,351.687H185.673c-1.411,0-2.554-1.144-2.554-2.554V159.634
				c0-1.411,1.143-2.554,2.554-2.554h136.654c1.411,0,2.554,1.144,2.554,2.554v189.499
				C324.881,350.543,323.738,351.687,322.327,351.687z"/>
			
				<linearGradient id="SVGID_00000034084583846270907980000016317171509641544622_" gradientUnits="userSpaceOnUse" x1="265.1485" y1="331.2026" x2="244.7384" y2="399.5527">
				<stop  offset="0" style="stop-color:#9A79FF"/>
				<stop  offset="0.94" style="stop-color:#B391FF"/>
			</linearGradient>
			<circle style="fill:url(#SVGID_00000034084583846270907980000016317171509641544622_);" cx="254" cy="368.537" r="8.306"/>
			
				<linearGradient id="SVGID_00000078031103652552889940000011754461741361612459_" gradientUnits="userSpaceOnUse" x1="261.448" y1="132.7814" x2="265.6644" y2="128.565">
				<stop  offset="0" style="stop-color:#7F5EFF"/>
				<stop  offset="0.2423" style="stop-color:#8665FF"/>
				<stop  offset="0.5952" style="stop-color:#9978FF"/>
				<stop  offset="0.94" style="stop-color:#B391FF"/>
			</linearGradient>
			<path style="fill:url(#SVGID_00000078031103652552889940000011754461741361612459_);" d="M268.002,143.315h-28.004
				c-1.704,0-3.085-1.381-3.085-3.085l0,0c0-1.704,1.381-3.085,3.085-3.085h28.004c1.704,0,3.085,1.381,3.085,3.085l0,0
				C271.087,141.934,269.706,143.315,268.002,143.315z"/>
		</g>
		<g>
			
				<linearGradient id="SVGID_00000078031277322656051340000002454154465667575705_" gradientUnits="userSpaceOnUse" x1="275.9683" y1="158.1144" x2="219.9683" y2="251.4476">
				<stop  offset="0" style="stop-color:#9A79FF"/>
				<stop  offset="0.3403" style="stop-color:#BA76E8"/>
				<stop  offset="0.94" style="stop-color:#FB6FB9"/>
			</linearGradient>
			<circle style="fill:url(#SVGID_00000078031277322656051340000002454154465667575705_);" cx="254.849" cy="193.312" r="19.725"/>
			<g>
				<path style="fill:#FFFFFF;" d="M262.609,187.716c0,4.046-3.28,7.326-7.326,7.326c-4.046,0-7.326-3.28-7.326-7.326
					c0-4.046,3.28-7.326,7.326-7.326C259.329,180.391,262.609,183.67,262.609,187.716z"/>
				<path style="fill:#FFFFFF;" d="M243,209c0-6.633,5.377-12.011,12.011-12.011c6.633,0,12.011,5.377,12.011,12.011
					c0,0-5.509,4.684-12.172,4.799C248.186,213.913,243,209,243,209z"/>
			</g>
		</g>
		<g>
			<g>
				<path style="fill:#CFE3FF;" d="M309.211,242.789H203.592c-1.518,0-2.748-1.23-2.748-2.748v-10.049
					c0-1.518,1.23-2.748,2.748-2.748h105.619c1.518,0,2.748,1.23,2.748,2.748v10.049
					C311.959,241.558,310.729,242.789,309.211,242.789z"/>
				
					<text transform="matrix(1 0 0 1 208.3447 239.0122)" style="fill:#606565; font-family:'Montserrat-Regular'; font-size:10.7648px;">NAME</text>
			</g>
			<g>
				<path style="fill:#CFE3FF;" d="M309.211,264.666H203.592c-1.518,0-2.748-1.23-2.748-2.748V251.87
					c0-1.518,1.23-2.748,2.748-2.748h105.619c1.518,0,2.748,1.23,2.748,2.748v10.049
					C311.959,263.436,310.729,264.666,309.211,264.666z"/>
				
					<text transform="matrix(1 0 0 1 208.3447 262.9053)" style="fill:#606565; font-family:'Montserrat-Regular'; font-size:10.7648px;">**********</text>
			</g>
		</g>
		<g>
			
				<linearGradient id="SVGID_00000021114847482386028310000016506056915303146410_" gradientUnits="userSpaceOnUse" x1="262.3872" y1="276.7993" x2="228.3871" y2="327.466">
				<stop  offset="0" style="stop-color:#9A79FF"/>
				<stop  offset="0.3403" style="stop-color:#BA76E8"/>
				<stop  offset="0.94" style="stop-color:#FB6FB9"/>
			</linearGradient>
			<path style="fill:url(#SVGID_00000021114847482386028310000016506056915303146410_);" d="M268.102,301.412h-34.16
				c-3.604,0-6.525-2.921-6.525-6.525v-2.303c0-3.604,2.921-6.525,6.525-6.525h34.16c3.604,0,6.525,2.921,6.525,6.525v2.303
				C274.627,298.491,271.706,301.412,268.102,301.412z"/>
		</g>
		<g>
			<path style="fill:#00CCFF;" d="M268.102,327.412h-34.16c-3.604,0-6.525-2.921-6.525-6.525v-2.303
				c0-3.604,2.921-6.525,6.525-6.525h34.16c3.604,0,6.525,2.921,6.525,6.525v2.303C274.627,324.491,271.706,327.412,268.102,327.412
				z"/>
		</g>
		<g>
			<g>
				<path style="fill:#F6B381;" d="M343.692,393.686l-5.271-16.692c-0.256-0.812-0.863-1.465-1.653-1.781l-19.761-7.904
					c-18.15-7.26-17.484-35.688-16.967-43.291c0.078-1.153-0.551-2.225-1.59-2.731l-20.738-10.103
					c-7.076-3.447-12.865-12.707-12.865-20.578v-0.041c0-8.239,6.341-12.694,14.092-9.898l52.868,19.067
					c0.618,0.223,1.14,0.653,1.476,1.218l27.726,46.54c0.682,1.145,2.068,1.661,3.332,1.243l23.435-7.757
					c1.596-0.528,3.299,0.438,3.665,2.079l10.935,49.158c0.395,1.774-0.955,3.457-2.772,3.457H346.4
					C345.161,395.671,344.065,394.868,343.692,393.686z"/>
				<path style="fill:#F6906B;" d="M342.591,362.698c-38.535-6.881-28.901-46.792-28.901-46.792l-48.353-21.213
					c1.522,6.756,6.499,13.628,12.376,16.49l20.738,10.103l0,0l1.749,0.852c0,0-0.091,0.811-0.179,2.191
					c-0.007,0.115-0.015,0.226-0.022,0.349c-0.012,0.199-0.023,0.417-0.034,0.637c-0.005,0.107-0.011,0.205-0.016,0.317
					c-0.016,0.335-0.03,0.689-0.043,1.063c-0.003,0.096-0.005,0.202-0.008,0.3c-0.009,0.289-0.017,0.585-0.023,0.895
					c-0.003,0.149-0.004,0.307-0.007,0.46c-0.004,0.276-0.007,0.557-0.009,0.848c-0.001,0.176,0,0.357,0,0.538
					c0,0.283,0.002,0.572,0.005,0.866c0.002,0.195,0.005,0.392,0.009,0.592c0.005,0.305,0.013,0.617,0.022,0.932
					c0.006,0.196,0.011,0.392,0.018,0.591c0.012,0.348,0.029,0.705,0.046,1.064c0.009,0.179,0.016,0.355,0.025,0.537
					c0.03,0.541,0.064,1.091,0.106,1.651c0.002,0.027,0.005,0.055,0.007,0.082c0.041,0.534,0.088,1.076,0.142,1.625
					c0.018,0.182,0.04,0.368,0.059,0.552c0.042,0.397,0.085,0.796,0.134,1.198c0.027,0.223,0.058,0.448,0.087,0.673
					c0.049,0.371,0.1,0.743,0.156,1.117c0.035,0.238,0.073,0.478,0.111,0.717c0.06,0.373,0.124,0.748,0.19,1.124
					c0.042,0.235,0.083,0.47,0.128,0.706c0.075,0.397,0.158,0.795,0.242,1.193c0.045,0.214,0.088,0.428,0.136,0.642
					c0.11,0.494,0.23,0.987,0.355,1.479c0.029,0.117,0.055,0.234,0.085,0.35c0.158,0.606,0.328,1.21,0.51,1.812
					c0.05,0.166,0.107,0.33,0.159,0.495c0.136,0.434,0.276,0.867,0.426,1.296c0.076,0.218,0.158,0.433,0.237,0.65
					c0.138,0.375,0.279,0.749,0.427,1.12c0.092,0.229,0.188,0.457,0.284,0.684c0.151,0.355,0.307,0.707,0.468,1.057
					c0.104,0.225,0.209,0.45,0.317,0.672c0.173,0.354,0.355,0.703,0.54,1.05c0.109,0.204,0.215,0.411,0.328,0.612
					c0.219,0.39,0.451,0.772,0.686,1.15c0.092,0.147,0.177,0.299,0.271,0.444c0.335,0.517,0.685,1.023,1.053,1.515
					c0.074,0.098,0.155,0.19,0.23,0.288c0.3,0.389,0.607,0.771,0.929,1.14c0.141,0.161,0.29,0.315,0.435,0.473
					c0.271,0.295,0.547,0.586,0.833,0.867c0.17,0.167,0.347,0.328,0.523,0.489c0.281,0.258,0.568,0.51,0.864,0.754
					c0.19,0.156,0.382,0.31,0.577,0.461c0.307,0.236,0.623,0.461,0.945,0.681c0.199,0.136,0.396,0.274,0.601,0.404
					c0.359,0.228,0.733,0.44,1.11,0.648c0.184,0.101,0.361,0.209,0.549,0.306c0.574,0.294,1.164,0.569,1.781,0.816
					c2.425,0.97,4.558,1.823,6.456,2.582l0.696,0.279c1.383,0.553,2.632,1.053,3.753,1.501l2.44,0.976
					c7.659,3.064,7.664,3.066,7.664,3.066l5.676,17.975c0.373,1.181,1.469,1.984,2.708,1.984h12.638l-7.501-31.597L342.591,362.698z
					"/>
				<path style="fill:#E3E3E6;" d="M273.181,290.17l1.789-3.478c0.909-1.767,2.988-2.583,4.856-1.907l8.92,3.23
					c2.234,0.809,3.253,3.394,2.172,5.51l-2.562,5.014c-1.033,2.02-3.551,2.757-5.51,1.611l-8.146-4.765
					C272.888,294.325,272.222,292.035,273.181,290.17z"/>
			</g>
			<g>
				<path style="fill:#F1E8E1;" d="M405.086,402.763l-64.56,10.265c-3.566,0.567-6.916-1.864-7.483-5.43l-1.513-9.514
					c-0.567-3.566,1.864-6.916,5.43-7.483l64.56-10.265c3.565-0.567,6.916,1.864,7.482,5.43l1.513,9.514
					C411.082,398.846,408.651,402.196,405.086,402.763z"/>
				<path style="fill:#DDD3D2;" d="M372.806,407.895l-31.034,4.935c-4.254,0.676-8.25-2.224-8.927-6.477l-1.117-7.022
					c-0.676-4.254,2.224-8.25,6.477-8.927l31.034-4.934c4.254-0.676,8.25,2.224,8.927,6.477l1.116,7.022
					C379.959,403.222,377.059,407.219,372.806,407.895z"/>
				<polygon style="fill:#393C63;" points="432.995,500 415.671,394.112 326.419,408.303 341.501,500 				"/>
				<path style="fill:#2F2D4F;" d="M396.058,500l-13.883-84.304c-1.392-8.758-9.621-14.728-18.378-13.336l-37.377,5.943L341.501,500
					H396.058z"/>
			</g>
		</g>
		<g>
			<g>
				<path style="fill:#F6B381;" d="M159.15,447.686l5.271-16.692c0.256-0.812,0.863-1.465,1.653-1.781l19.761-7.904
					c18.15-7.26,17.484-35.688,16.967-43.291c-0.078-1.153,0.551-2.225,1.59-2.731l20.738-10.103
					c7.076-3.447,12.865-12.707,12.865-20.578v-0.041c0-8.239-6.342-12.694-14.092-9.898l-52.868,19.067
					c-0.618,0.223-1.14,0.653-1.476,1.218l-27.726,46.54c-0.682,1.145-2.067,1.661-3.332,1.243l-23.435-7.757
					c-1.596-0.528-3.299,0.438-3.665,2.079l-10.935,49.158c-0.395,1.774,0.955,3.457,2.772,3.457h53.204
					C157.681,449.671,158.777,448.868,159.15,447.686z"/>
				<path style="fill:#F6906B;" d="M160.251,416.698c38.535-6.881,28.901-46.792,28.901-46.792l48.353-21.213
					c-1.522,6.756-6.499,13.628-12.376,16.49l-20.738,10.103l-0.001,0l-1.749,0.852c0,0,0.091,0.811,0.179,2.191
					c0.007,0.115,0.015,0.226,0.022,0.349c0.012,0.199,0.023,0.417,0.034,0.637c0.006,0.107,0.011,0.205,0.016,0.317
					c0.016,0.335,0.03,0.689,0.043,1.063c0.003,0.096,0.005,0.202,0.008,0.3c0.009,0.289,0.017,0.585,0.023,0.895
					c0.003,0.149,0.004,0.307,0.007,0.46c0.004,0.276,0.007,0.557,0.009,0.848c0.001,0.176,0,0.357,0,0.538
					c0,0.283-0.002,0.572-0.005,0.866c-0.002,0.195-0.005,0.392-0.008,0.592c-0.006,0.305-0.014,0.617-0.023,0.932
					c-0.006,0.196-0.011,0.392-0.018,0.591c-0.012,0.348-0.029,0.705-0.046,1.064c-0.009,0.179-0.015,0.355-0.025,0.537
					c-0.03,0.541-0.064,1.091-0.106,1.651c-0.002,0.027-0.005,0.055-0.007,0.082c-0.041,0.534-0.088,1.076-0.142,1.625
					c-0.018,0.182-0.04,0.368-0.059,0.552c-0.042,0.397-0.085,0.796-0.134,1.198c-0.027,0.223-0.058,0.448-0.087,0.673
					c-0.049,0.371-0.1,0.743-0.156,1.117c-0.035,0.238-0.072,0.478-0.111,0.717c-0.059,0.373-0.124,0.748-0.19,1.124
					c-0.042,0.235-0.083,0.47-0.128,0.706c-0.075,0.397-0.158,0.795-0.242,1.193c-0.045,0.214-0.088,0.428-0.136,0.642
					c-0.11,0.494-0.23,0.987-0.355,1.479c-0.029,0.117-0.055,0.234-0.085,0.35c-0.158,0.606-0.328,1.21-0.51,1.812
					c-0.05,0.166-0.107,0.33-0.159,0.495c-0.136,0.434-0.276,0.867-0.425,1.296c-0.076,0.218-0.158,0.433-0.237,0.65
					c-0.138,0.375-0.279,0.749-0.427,1.12c-0.092,0.229-0.188,0.457-0.284,0.684c-0.15,0.355-0.307,0.707-0.468,1.057
					c-0.104,0.225-0.209,0.45-0.317,0.672c-0.173,0.354-0.355,0.703-0.54,1.05c-0.109,0.204-0.215,0.411-0.328,0.612
					c-0.219,0.39-0.451,0.772-0.686,1.15c-0.092,0.147-0.177,0.299-0.271,0.444c-0.335,0.517-0.685,1.023-1.053,1.515
					c-0.074,0.098-0.155,0.19-0.23,0.288c-0.3,0.389-0.607,0.771-0.929,1.14c-0.141,0.161-0.29,0.315-0.435,0.473
					c-0.271,0.295-0.546,0.586-0.833,0.867c-0.17,0.167-0.347,0.328-0.523,0.489c-0.281,0.258-0.568,0.51-0.864,0.754
					c-0.19,0.156-0.382,0.31-0.578,0.461c-0.307,0.236-0.623,0.461-0.945,0.681c-0.199,0.136-0.396,0.274-0.601,0.404
					c-0.359,0.228-0.733,0.44-1.11,0.648c-0.184,0.101-0.361,0.209-0.549,0.306c-0.574,0.294-1.164,0.569-1.781,0.816
					c-2.425,0.97-4.558,1.823-6.455,2.582l-0.696,0.279c-1.383,0.553-2.632,1.053-3.753,1.501l-2.44,0.976
					c-7.659,3.064-7.664,3.066-7.664,3.066l-5.676,17.975c-0.373,1.181-1.469,1.984-2.708,1.984h-12.638l7.501-31.597
					L160.251,416.698z"/>
				<path style="fill:#E3E3E6;" d="M229.661,344.17l-1.789-3.478c-0.908-1.767-2.988-2.583-4.856-1.907l-8.92,3.23
					c-2.234,0.809-3.253,3.394-2.172,5.51l2.563,5.014c1.032,2.02,3.551,2.757,5.509,1.611l8.146-4.765
					C229.954,348.325,230.621,346.035,229.661,344.17z"/>
			</g>
			<g>
				<path style="fill:#F1E8E1;" d="M97.757,456.763l64.56,10.265c3.566,0.567,6.916-1.864,7.482-5.429l1.513-9.514
					c0.567-3.565-1.864-6.916-5.43-7.482l-64.56-10.265c-3.566-0.567-6.916,1.864-7.482,5.429l-1.513,9.514
					C91.76,452.845,94.191,456.195,97.757,456.763z"/>
				<path style="fill:#DDD3D2;" d="M130.037,461.895l31.034,4.935c4.254,0.676,8.25-2.224,8.927-6.477l1.117-7.022
					c0.676-4.254-2.224-8.25-6.477-8.927l-31.034-4.934c-4.254-0.676-8.25,2.224-8.927,6.477l-1.117,7.022
					C122.883,457.222,125.783,461.219,130.037,461.895z"/>
				<polygon style="fill:#393C63;" points="170.223,500 176.423,462.303 87.171,448.112 78.682,500 				"/>
				<path style="fill:#2F2D4F;" d="M170.223,500l6.2-37.697l-37.377-5.943c-8.757-1.392-16.986,4.578-18.378,13.336L115.677,500
					H170.223z"/>
			</g>
		</g>
	</g>
</g>
<g id="DESIGNED_BY_FREEPIK">
	<g>
		<g id="XMLID_319_">
			<g id="XMLID_338_">
				<path id="XMLID_346_" style="fill:#2F2D4F;" d="M261.442,464.892c-0.49,0.502-0.91,1.054-1.255,1.646l-0.527-0.273
					c-0.076-0.337-0.396-0.569-0.746-0.528c-0.375,0.044-0.643,0.384-0.599,0.759c0.044,0.375,0.384,0.643,0.758,0.599
					c0.074-0.009,0.144-0.029,0.208-0.059l0.511,0.265c-0.284,0.627-0.49,1.289-0.611,1.975l0.845,0.149
					c0.26-1.479,0.962-2.839,2.029-3.932L261.442,464.892z"/>
				<path id="XMLID_345_" style="fill:#2F2D4F;" d="M267.656,462.285c-0.194,0-0.386,0.007-0.577,0.019l-0.083-0.709
					c0.212-0.169,0.335-0.44,0.301-0.73c-0.052-0.445-0.456-0.763-0.901-0.711c-0.445,0.052-0.764,0.455-0.711,0.901
					c0.034,0.288,0.214,0.522,0.458,0.638l0.083,0.707c-0.808,0.132-1.589,0.376-2.332,0.732l0.37,0.774
					c1.058-0.506,2.199-0.762,3.392-0.762c0.562,0,1.124,0.06,1.67,0.178l0.182-0.839
					C268.902,462.352,268.279,462.285,267.656,462.285z"/>
				<path id="XMLID_344_" style="fill:#2F2D4F;" d="M275.133,465.17c0.375-0.046,0.641-0.387,0.595-0.761
					c-0.046-0.375-0.387-0.641-0.761-0.595c-0.35,0.043-0.606,0.344-0.6,0.689l-0.471,0.411c-0.473-0.487-1.007-0.92-1.594-1.29
					l-0.457,0.726c1.284,0.809,2.288,1.955,2.903,3.313l0.782-0.354c-0.284-0.627-0.643-1.214-1.067-1.75l0.456-0.397
					C274.986,465.175,275.059,465.179,275.133,465.17z"/>
				<path id="XMLID_343_" style="fill:#2F2D4F;" d="M267.036,473.845c-0.437,0.026-0.878,0.039-1.31,0.039
					c-0.997,0-1.962-0.069-2.806-0.203c-0.442-0.07-0.958-0.176-1.439-0.331c1.185,2.107,3.476,3.539,6.102,3.539
					c3.234,0,5.959-2.17,6.737-5.1c-0.772,0.509-1.705,0.935-2.784,1.271C270.2,473.478,268.643,473.749,267.036,473.845z"/>
				<path id="XMLID_339_" style="fill:#2F2D4F;" d="M267.656,464.002c-3.796,0-6.885,3.019-6.885,6.73
					c0,0.482,0.052,0.962,0.155,1.428c0.762,0.547,3.064,1.008,6.055,0.828c3.261-0.196,5.998-1.084,7.556-2.444
					c-0.006-0.221-0.023-0.442-0.051-0.659C274.056,466.531,271.12,464.002,267.656,464.002z M265.211,471.38
					c-1.155,0-2.095-0.94-2.095-2.095c0-1.155,0.94-2.095,2.095-2.095c1.155,0,2.095,0.94,2.095,2.095
					C267.305,470.44,266.366,471.38,265.211,471.38z M270.576,470.351c-0.849,0-1.54-0.691-1.54-1.54
					c0-0.849,0.691-1.541,1.54-1.541c0.849,0,1.541,0.691,1.541,1.541C272.116,469.66,271.425,470.351,270.576,470.351z"/>
			</g>
			<path id="XMLID_336_" style="fill:#2F2D4F;" d="M285.778,466.116c-0.334-0.131-0.912-0.35-1.565-0.269
				c-0.624,0.078-0.956,0.386-0.956,1.14v0.981h2.523v1.945h-2.523v6.177h-2.187v-6.177h-1.517v-1.945h1.517v-1.006
				c0-1.902,1.014-3.151,2.908-3.151c0.728,0,1.31,0.138,1.8,0.349L285.778,466.116z"/>
			<path id="XMLID_334_" style="fill:#2F2D4F;" d="M291.104,469.89c-0.2-0.034-0.405-0.052-0.596-0.052
				c-1.014,0-1.71,0.62-1.71,1.827v4.425h-2.188v-8.122h2.12v0.888c0.511-0.763,1.291-1.106,2.288-1.106
				c0.469,0,0.96,0.144,1.239,0.381L291.104,469.89z"/>
			<path id="XMLID_331_" style="fill:#2F2D4F;" d="M299.786,472.017c0,0.251-0.017,0.553-0.042,0.738h-5.758
				c0.235,1.173,1.056,1.685,2.087,1.685c0.704,0,1.467-0.285,2.053-0.779l1.282,1.408c-0.922,0.846-2.095,1.232-3.461,1.232
				c-2.489,0-4.216-1.693-4.216-4.249c0-2.556,1.676-4.3,4.107-4.3C298.177,467.75,299.778,469.485,299.786,472.017z
				 M293.994,471.262h3.596c-0.201-1.039-0.83-1.626-1.768-1.626C294.791,469.636,294.187,470.257,293.994,471.262z"/>
			<path id="XMLID_328_" style="fill:#2F2D4F;" d="M308.453,472.017c0,0.251-0.017,0.553-0.042,0.738h-5.758
				c0.235,1.173,1.056,1.685,2.087,1.685c0.704,0,1.467-0.285,2.053-0.779l1.282,1.408c-0.922,0.846-2.095,1.232-3.461,1.232
				c-2.489,0-4.216-1.693-4.216-4.249c0-2.556,1.676-4.3,4.107-4.3C306.843,467.75,308.444,469.485,308.453,472.017z
				 M302.661,471.262h3.596c-0.201-1.039-0.83-1.626-1.768-1.626C303.457,469.636,302.854,470.257,302.661,471.262z"/>
			<path id="XMLID_325_" style="fill:#2F2D4F;" d="M317.903,472.025c0,2.439-1.693,4.275-3.931,4.275
				c-1.09,0-1.861-0.428-2.389-1.056v4.199h-2.179v-11.474h2.137v0.897c0.528-0.662,1.307-1.115,2.422-1.115
				C316.21,467.75,317.903,469.586,317.903,472.025z M311.475,472.025c0,1.282,0.846,2.238,2.087,2.238
				c1.291,0,2.095-0.997,2.095-2.238c0-1.24-0.805-2.238-2.095-2.238C312.321,469.787,311.475,470.742,311.475,472.025z"/>
			<path id="XMLID_322_" style="fill:#2F2D4F;" d="M321.418,465.311c0,0.788-0.612,1.391-1.4,1.391
				c-0.788,0-1.391-0.603-1.391-1.391c0-0.788,0.604-1.408,1.391-1.408C320.806,463.903,321.418,464.524,321.418,465.311z
				 M321.124,476.09h-2.188v-8.122h2.188V476.09z"/>
			<path id="XMLID_320_" style="fill:#2F2D4F;" d="M324.775,470.86l3.059-2.892h2.682l-3.939,3.822l3.964,4.3h-2.69l-3.076-3.285
				v3.285h-2.188v-12.069h2.188V470.86z"/>
		</g>
		<g>
			<path style="fill:#2F2D4F;" d="M175.729,476.016v-1.194c-0.597,0.813-1.576,1.393-2.704,1.393c-2.09,0-3.566-1.592-3.566-4.196
				c0-2.555,1.46-4.213,3.566-4.213c1.078,0,2.057,0.531,2.704,1.41v-4.263h1.244v11.064H175.729z M175.729,473.843v-3.633
				c-0.448-0.697-1.41-1.294-2.405-1.294c-1.609,0-2.571,1.327-2.571,3.102c0,1.775,0.962,3.085,2.571,3.085
				C174.319,475.104,175.281,474.54,175.729,473.843z"/>
			<path style="fill:#2F2D4F;" d="M178.582,472.002c0-2.322,1.659-4.197,3.948-4.197c2.422,0,3.848,1.891,3.848,4.296v0.316h-6.486
				c0.1,1.509,1.161,2.77,2.886,2.77c0.912,0,1.841-0.365,2.471-1.012l0.597,0.813c-0.796,0.796-1.874,1.227-3.185,1.227
				C180.29,476.215,178.582,474.507,178.582,472.002z M182.513,468.834c-1.709,0-2.555,1.443-2.621,2.67h5.258
				C185.134,470.31,184.337,468.834,182.513,468.834z"/>
			<path style="fill:#2F2D4F;" d="M187.273,474.955l0.647-0.895c0.531,0.614,1.543,1.145,2.637,1.145
				c1.228,0,1.891-0.581,1.891-1.377c0-1.94-4.96-0.746-4.96-3.716c0-1.244,1.078-2.306,2.985-2.306c1.36,0,2.323,0.514,2.969,1.161
				l-0.581,0.863c-0.481-0.581-1.36-1.012-2.389-1.012c-1.095,0-1.775,0.547-1.775,1.261c0,1.758,4.96,0.597,4.96,3.716
				c0,1.344-1.078,2.422-3.151,2.422C189.197,476.215,188.086,475.817,187.273,474.955z"/>
			<path style="fill:#2F2D4F;" d="M195.053,466.031c0-0.464,0.382-0.846,0.829-0.846c0.465,0,0.846,0.381,0.846,0.846
				c0,0.465-0.381,0.829-0.846,0.829C195.434,466.86,195.053,466.495,195.053,466.031z M195.268,476.016v-8.012h1.244v8.012H195.268
				z"/>
			<path style="fill:#2F2D4F;" d="M198.569,478.073l0.63-0.929c0.663,0.796,1.46,1.095,2.604,1.095c1.327,0,2.571-0.647,2.571-2.405
				v-1.145c-0.581,0.813-1.559,1.427-2.687,1.427c-2.09,0-3.566-1.559-3.566-4.147c0-2.571,1.46-4.163,3.566-4.163
				c1.078,0,2.04,0.531,2.687,1.41v-1.211h1.244v7.78c0,2.654-1.858,3.483-3.815,3.483
				C200.443,479.267,199.514,479.002,198.569,478.073z M204.374,473.711v-3.5c-0.432-0.697-1.393-1.294-2.389-1.294
				c-1.609,0-2.571,1.277-2.571,3.052c0,1.758,0.962,3.052,2.571,3.052C202.981,475.021,203.943,474.408,204.374,473.711z"/>
			<path style="fill:#2F2D4F;" d="M213.099,476.016v-5.242c0-1.41-0.713-1.858-1.791-1.858c-0.979,0-1.908,0.597-2.372,1.244v5.855
				h-1.244v-8.012h1.244v1.161c0.564-0.663,1.658-1.36,2.853-1.36c1.675,0,2.555,0.846,2.555,2.588v5.623H213.099z"/>
			<path style="fill:#2F2D4F;" d="M215.952,472.002c0-2.322,1.659-4.197,3.948-4.197c2.422,0,3.848,1.891,3.848,4.296v0.316h-6.486
				c0.099,1.509,1.161,2.77,2.886,2.77c0.912,0,1.841-0.365,2.472-1.012l0.597,0.813c-0.796,0.796-1.874,1.227-3.185,1.227
				C217.66,476.215,215.952,474.507,215.952,472.002z M219.883,468.834c-1.708,0-2.555,1.443-2.621,2.67h5.258
				C222.503,470.31,221.707,468.834,219.883,468.834z"/>
			<path style="fill:#2F2D4F;" d="M231.146,476.016v-1.194c-0.597,0.813-1.576,1.393-2.704,1.393c-2.09,0-3.566-1.592-3.566-4.196
				c0-2.555,1.46-4.213,3.566-4.213c1.078,0,2.057,0.531,2.704,1.41v-4.263h1.244v11.064H231.146z M231.146,473.843v-3.633
				c-0.448-0.697-1.41-1.294-2.405-1.294c-1.609,0-2.571,1.327-2.571,3.102c0,1.775,0.962,3.085,2.571,3.085
				C229.736,475.104,230.697,474.54,231.146,473.843z"/>
			<path style="fill:#2F2D4F;" d="M238.327,476.016v-11.064h1.244v4.263c0.647-0.879,1.609-1.41,2.704-1.41
				c2.09,0,3.566,1.659,3.566,4.213c0,2.604-1.476,4.196-3.566,4.196c-1.128,0-2.107-0.581-2.704-1.393v1.194H238.327z
				 M241.96,475.104c1.626,0,2.588-1.31,2.588-3.085c0-1.775-0.962-3.102-2.588-3.102c-0.979,0-1.957,0.597-2.388,1.294v3.633
				C240.003,474.54,240.981,475.104,241.96,475.104z"/>
			<path style="fill:#2F2D4F;" d="M247.201,478.023c0.182,0.083,0.481,0.133,0.68,0.133c0.547,0,0.912-0.182,1.194-0.846
				l0.531-1.211l-3.351-8.095h1.344l2.671,6.569l2.654-6.569h1.36l-4.014,9.637c-0.481,1.161-1.294,1.609-2.356,1.625
				c-0.265,0-0.68-0.05-0.912-0.116L247.201,478.023z"/>
		</g>
	</g>
</g>
</svg>
